<svg viewBox="0 0 64 64" xmlns="http://www.w3.org/2000/svg"><path d="M62.675 34.14a3.634 3.634 0 0 0-3.047-3.474c-4.155-.746-8.143-4.433-10.148-6.561a3.707 3.707 0 0 0-2.66-1.172l-.007.001-.007-.001a3.68 3.68 0 0 0-2.714 1.168c-2.008 2.132-6 5.82-10.149 6.565a3.651 3.651 0 0 0-3.044 3.49 47.943 47.943 0 0 0 .786 9.524v.001c1.816 9.576 6.621 15.995 13.898 18.564a3.659 3.659 0 0 0 1.223.208 3.452 3.452 0 0 0 1.197-.212c7.274-2.635 12.081-9.053 13.904-18.56v-.001a45.913 45.913 0 0 0 .769-9.54Zm-17.218 7.938H34.145a46.115 46.115 0 0 1-.547-7.878.938.938 0 0 1 .822-.875c4.337-.78 8.302-3.972 11.037-6.748Zm2.699 17.196V44.777h10.756c-1.729 7.257-5.337 12.124-10.756 14.497Z" fill="#ffffff" class="fill-000000"></path><path d="M33.465 28.01c2.398-.432 5.435-2.426 8.371-5.466.003-.132.012-.262.012-.395a20.288 20.288 0 1 0-13.27 19.027 52.447 52.447 0 0 1-.378-7.064 6.356 6.356 0 0 1 5.265-6.103Zm-13.228-8.158h2.604a4.327 4.327 0 1 1 0 8.654h-.064v2.24a1.35 1.35 0 1 1-2.7 0v-2.24h-3.041a1.35 1.35 0 0 1 0-2.699h5.805a1.628 1.628 0 1 0 0-3.256h-2.604a4.544 4.544 0 0 1-.16-9.085v-2.257a1.35 1.35 0 0 1 2.7 0v2.24h3.314a1.35 1.35 0 1 1 0 2.7h-5.854a1.852 1.852 0 0 0 0 3.703Z" fill="#ffffff" class="fill-000000"></path></svg>